<?xml version="1.0" encoding="utf-8"?>
<!-- Generator: Adobe Illustrator 16.0.0, SVG Export Plug-In . SVG Version: 6.00 Build 0)  -->
<!DOCTYPE svg PUBLIC "-//W3C//DTD SVG 1.1//EN" "http://www.w3.org/Graphics/SVG/1.1/DTD/svg11.dtd">
<svg version="1.1" id="图层_1" xmlns="http://www.w3.org/2000/svg" xmlns:xlink="http://www.w3.org/1999/xlink" x="0px" y="0px"
	 width="1024px" height="1024px" viewBox="0 0 1024 1024" enable-background="new 0 0 1024 1024" xml:space="preserve">
<g>
	<path d="M507.593,174.997c58.821,0,114.188,21.292,155.904,59.953c41.021,38.019,64.163,88.588,65.162,142.394l0.63,33.936v223.908
		v9.797l4.527,8.688l71.073,136.386l41.175,79.017h-76.775h-0.579H625.409H389.198H245.896h-77.353l41.174-79.016l71.651-137.498
		l4.527-8.688v-9.797V411.332l0.631-33.988c0.999-53.805,24.14-104.375,65.162-142.393
		C393.404,196.289,448.772,174.997,507.593,174.997 M507.593,134.997c-142.656,0-258.575,107.773-261.059,241.604h-0.638v257.475
		l-71.651,137.498l-71.65,137.501h143.301h143.302h236.211H768.71h0.579h142.724l-71.65-137.501l-71.073-136.387V376.601h-0.637
		C766.168,242.77,650.25,134.997,507.593,134.997L507.593,134.997z"/>
</g>
<path fill="#040000" stroke="#000000" stroke-miterlimit="10" d="M411.303,940c7.035,47.509,48.693,84,99.039,84
	c50.347,0,92.005-36.491,99.039-84H411.303z"/>
<path fill="#040000" stroke="#000000" stroke-miterlimit="10" d="M507.304,160.5c26.241,0,50.915-14.117,75.45-15.06
	C580.994,64.517,548.02,0,507.593,0c-40.398,0-73.357,64.427-75.158,145.271C457.75,147.75,481.285,160.5,507.304,160.5z"/>
</svg>
