<?xml version="1.0" encoding="utf-8"?>
<!-- Generator: Adobe Illustrator 16.0.0, SVG Export Plug-In . SVG Version: 6.00 Build 0)  -->
<!DOCTYPE svg PUBLIC "-//W3C//DTD SVG 1.1//EN" "http://www.w3.org/Graphics/SVG/1.1/DTD/svg11.dtd">
<svg version="1.1" id="图层_1" xmlns="http://www.w3.org/2000/svg" xmlns:xlink="http://www.w3.org/1999/xlink" x="0px" y="0px"
	 width="1024px" height="1024px" viewBox="0 0 1024 1024" enable-background="new 0 0 1024 1024" xml:space="preserve">
<g>
	<path fill="#040000" stroke="#000000" stroke-miterlimit="10" d="M840.362,740.323l-71.073-129.691V364.74h-0.637
		c-2.029-103.956-79.757-191.365-185.915-219.897C580.828,64.2,547.92,0,507.593,0s-73.238,64.2-75.146,144.843
		C326.291,173.376,248.563,260.785,246.534,364.74h-0.638v244.835l-71.651,130.748l-71.65,130.751h143.301h143.302h236.211H768.71
		h0.579h142.724L840.362,740.323z"/>
	<path fill="#040000" stroke="#000000" stroke-miterlimit="10" d="M510.342,1024c50.347,0,92.005-41.673,99.039-95.929H411.303
		C418.338,982.327,459.996,1024,510.342,1024z"/>
</g>
</svg>
