<?xml version="1.0" encoding="utf-8"?>
<!-- Generator: Adobe Illustrator 16.0.0, SVG Export Plug-In . SVG Version: 6.00 Build 0)  -->
<!DOCTYPE svg PUBLIC "-//W3C//DTD SVG 1.1//EN" "http://www.w3.org/Graphics/SVG/1.1/DTD/svg11.dtd">
<svg version="1.1" id="图层_1" xmlns="http://www.w3.org/2000/svg" xmlns:xlink="http://www.w3.org/1999/xlink" x="0px" y="0px"
	 width="1024px" height="1024px" viewBox="0 0 1024 1024" enable-background="new 0 0 1024 1024" xml:space="preserve">
<g>
	<path d="M510.342,1024c53.578,0,97.214-42.65,98.977-95.929H411.365C413.128,981.35,456.763,1024,510.342,1024z"/>
	<path d="M475.594,870.574h63.541h30.954h341.925L767.244,606.575V352.598h-0.202c-4.188-98.101-80.531-180.186-184.295-207.394
		C580.928,64.392,547.981,0,507.593,0c-40.387,0-73.339,64.391-75.156,145.204c-103.764,27.208-180.104,109.293-184.292,207.394
		h-0.202v253.142L102.715,870.574h329.72H475.594z M286.582,620.679V351.598h0.266c14.431-100.746,107.755-178.492,220.744-178.492
		c112.987,0,206.313,77.746,220.744,178.492h0.126v0.838c0.008,0.054,0.017,0.108,0.024,0.162h-0.024v268.657L843.897,831.76
		H570.088h-9.669h-106.11h-21.874H170.831L286.582,620.679z"/>
</g>
</svg>
