<?xml version="1.0" encoding="utf-8"?>
<!-- Generator: Adobe Illustrator 16.0.0, SVG Export Plug-In . SVG Version: 6.00 Build 0)  -->
<!DOCTYPE svg PUBLIC "-//W3C//DTD SVG 1.1//EN" "http://www.w3.org/Graphics/SVG/1.1/DTD/svg11.dtd">
<svg version="1.1" id="图层_1" xmlns="http://www.w3.org/2000/svg" xmlns:xlink="http://www.w3.org/1999/xlink" x="0px" y="0px"
	 width="1024px" height="1024px" viewBox="0 0 1024 1024" enable-background="new 0 0 1024 1024" xml:space="preserve">
<g>
	<path fill="#040000" stroke="#000000" stroke-miterlimit="10" d="M840.362,771.574l-71.073-136.387V376.601h-0.637
		c-2.029-109.318-79.746-201.234-185.9-231.243C580.973,64.473,548.006,0,507.593,0s-73.38,64.473-75.16,145.358
		c-106.154,30.009-183.87,121.925-185.899,231.243h-0.638v257.475l-71.651,137.498l-71.65,137.501h143.301h143.302h236.211H768.71
		h0.579h142.724L840.362,771.574z"/>
	<path fill="#040000" stroke="#000000" stroke-miterlimit="10" d="M510.342,1024c50.347,0,92.005-36.491,99.039-84H411.303
		C418.338,987.509,459.996,1024,510.342,1024z"/>
</g>
</svg>
