<?xml version="1.0" encoding="utf-8"?>
<!-- Generator: Adobe Illustrator 16.0.0, SVG Export Plug-In . SVG Version: 6.00 Build 0)  -->
<!DOCTYPE svg PUBLIC "-//W3C//DTD SVG 1.1//EN" "http://www.w3.org/Graphics/SVG/1.1/DTD/svg11.dtd">
<svg version="1.1" id="图层_1" xmlns="http://www.w3.org/2000/svg" xmlns:xlink="http://www.w3.org/1999/xlink" x="0px" y="0px"
	 width="1024px" height="1024px" viewBox="0 0 1024 1024" enable-background="new 0 0 1024 1024" xml:space="preserve">
<g>
	<path d="M46.053,163.279l427.894,133.585v668.953L46.053,832.232V163.279 M10.559,104.583C4.458,104.583,0,109.201,0,116.318
		v734.121c0,8.649,6.582,17.715,14.7,20.251l490.6,153.161c1.438,0.449,2.828,0.663,4.141,0.663c6.102,0,10.559-4.618,10.559-11.735
		V278.659c0-8.65-6.582-17.718-14.7-20.251L14.7,105.246C13.262,104.797,11.873,104.583,10.559,104.583L10.559,104.583z"/>
</g>
<g>
	<path d="M977.958,163.257v669.816L550.042,966.604V296.788L977.958,163.257 M1013.44,104.583c-1.313,0-2.703,0.214-4.142,0.663
		L518.701,258.336c-8.12,2.532-14.701,11.596-14.701,20.241v733.777c0,7.376,4.792,12.066,12.479,12.066
		c1.322,0,2.73-0.139,4.215-0.427l490.598-153.091c6.128-3.106,12.709-12.168,12.709-20.813V116.313
		C1024,109.198,1019.543,104.583,1013.44,104.583L1013.44,104.583z"/>
</g>
<polygon fill="#040000" stroke="#040000" stroke-width="0.4616" stroke-miterlimit="10" points="520.403,273.941 969.591,123.495 
	910.814,0.944 510.441,135.041 112.981,-0.081 54.54,123.372 501.278,275.246 503.385,279.641 508.835,277.815 517.22,280.666 "/>
</svg>
