<?xml version="1.0" encoding="utf-8"?>
<!-- Generator: Adobe Illustrator 16.0.0, SVG Export Plug-In . SVG Version: 6.00 Build 0)  -->
<!DOCTYPE svg PUBLIC "-//W3C//DTD SVG 1.1//EN" "http://www.w3.org/Graphics/SVG/1.1/DTD/svg11.dtd">
<svg version="1.1" id="图层_1" xmlns="http://www.w3.org/2000/svg" xmlns:xlink="http://www.w3.org/1999/xlink" x="0px" y="0px"
	 width="1024px" height="1024px" viewBox="0 0 1024 1024" enable-background="new 0 0 1024 1024" xml:space="preserve">
<path stroke="#FFFFFF" stroke-miterlimit="10" d="M826.575,227.605V12c0-6.627-5.372-12-12-12h-583.47c-6.627,0-12,5.373-12,12
	v215.605H0V1024h1024V227.605H826.575z M295.102,83.614c0-6.627,4.945-12,11.046-12h429.386c6.1,0,11.046,5.373,11.046,12v143.992
	H295.102V83.614z M970,281.07v129.526H56V281.07H970z M56,972.535V470.594h321.597v61.496c0,6.627,5.373,12,12,12h262.485
	c6.628,0,12-5.373,12-12v-61.496H970v501.941H56z"/>
</svg>
