<?xml version="1.0" encoding="utf-8"?>
<!-- Generator: Adobe Illustrator 16.0.0, SVG Export Plug-In . SVG Version: 6.00 Build 0)  -->
<!DOCTYPE svg PUBLIC "-//W3C//DTD SVG 1.1//EN" "http://www.w3.org/Graphics/SVG/1.1/DTD/svg11.dtd">
<svg version="1.1" id="图层_1" xmlns="http://www.w3.org/2000/svg" xmlns:xlink="http://www.w3.org/1999/xlink" x="0px" y="0px"
	 width="1024px" height="1024px" viewBox="0 0 1024 1024" enable-background="new 0 0 1024 1024" xml:space="preserve">
<g>
	<rect x="198.945" y="460.598" stroke="#FFFFFF" stroke-width="1.5188" stroke-miterlimit="10" width="62.717" height="52.498"/>
	<rect x="198.945" y="582.598" stroke="#FFFFFF" stroke-width="1.5188" stroke-miterlimit="10" width="62.717" height="52.498"/>
	<rect x="198.606" y="702.802" stroke="#FFFFFF" stroke-width="1.5188" stroke-miterlimit="10" width="62.717" height="52.498"/>
	<path stroke="#FFFFFF" stroke-width="1.5188" stroke-miterlimit="10" d="M696.581,469.094V202.107H544.579V0h-62.717v202.107
		h-152.56v137.992H64.113V1024h265.189h63.293h239.884h64.102h258.487V469.094H696.581z M261.324,973.439V822.076h-62.717v151.363
		h-73.751V394.607h204.447v578.832H261.324z M631.502,963.238H564.41V820.794H460.916v142.444h-63.697V267.614h234.284V963.238z
		 M897.907,982.976h-71.626V821.794h-61.723v161.182h-67.978V513.321h201.326V982.976z"/>
	<rect x="764.893" y="582.315" stroke="#FFFFFF" stroke-width="1.5188" stroke-miterlimit="10" width="61.722" height="52.498"/>
	<rect x="764.559" y="702.52" stroke="#FFFFFF" stroke-width="1.5188" stroke-miterlimit="10" width="61.723" height="52.498"/>
	<rect x="461.474" y="459.315" stroke="#FFFFFF" stroke-width="1.5188" stroke-miterlimit="10" width="103.494" height="52.498"/>
	<rect x="461.474" y="581.315" stroke="#FFFFFF" stroke-width="1.5188" stroke-miterlimit="10" width="103.494" height="52.498"/>
	<rect x="460.916" y="701.52" stroke="#FFFFFF" stroke-width="1.5188" stroke-miterlimit="10" width="103.495" height="52.498"/>
	<rect x="461.474" y="340.099" stroke="#FFFFFF" stroke-width="1.5188" stroke-miterlimit="10" width="103.494" height="52.498"/>
</g>
</svg>
