<?xml version="1.0" encoding="utf-8"?>
<!-- Generator: Adobe Illustrator 16.0.0, SVG Export Plug-In . SVG Version: 6.00 Build 0)  -->
<!DOCTYPE svg PUBLIC "-//W3C//DTD SVG 1.1//EN" "http://www.w3.org/Graphics/SVG/1.1/DTD/svg11.dtd">
<svg version="1.1" id="图层_1" xmlns="http://www.w3.org/2000/svg" xmlns:xlink="http://www.w3.org/1999/xlink" x="0px" y="0px"
	 width="1024px" height="1024px" viewBox="0 0 1024 1024" enable-background="new 0 0 1024 1024" xml:space="preserve">
<path d="M1000.317,924.366L587.843,512.89l409.298-408.306c6.263-6.249,6.225-16.422-0.088-22.719l-51.984-51.859
	c-6.314-6.298-16.512-6.336-22.774-0.087L512.997,438.225L100.522,26.75c-6.313-6.297-16.508-6.338-22.773-0.088l-51.585,51.46
	c-6.265,6.249-6.224,16.421,0.089,22.719l412.473,411.475L29.43,920.62c-6.265,6.251-6.226,16.421,0.087,22.72l51.985,51.857
	c6.312,6.299,16.509,6.339,22.773,0.088L513.573,586.98l412.475,411.477c6.311,6.295,16.508,6.336,22.771,0.088l51.586-51.46
	C1006.671,940.836,1006.629,930.662,1000.317,924.366z"/>
</svg>
