<?xml version="1.0" encoding="utf-8"?>
<!-- Generator: Adobe Illustrator 16.0.0, SVG Export Plug-In . SVG Version: 6.00 Build 0)  -->
<!DOCTYPE svg PUBLIC "-//W3C//DTD SVG 1.1//EN" "http://www.w3.org/Graphics/SVG/1.1/DTD/svg11.dtd">
<svg version="1.1" id="图层_1" xmlns="http://www.w3.org/2000/svg" xmlns:xlink="http://www.w3.org/1999/xlink" x="0px" y="0px"
	 width="1024px" height="1024px" viewBox="0 0 1024 1024" enable-background="new 0 0 1024 1024" xml:space="preserve">
<g>
	<path d="M617.311,507.506c-15.562-7.484-40.78-16.703-75.655-27.651V351.087c11.175,3.251,20.662,8.33,28.429,15.272
		c14.598,13.06,23.423,31.229,26.47,54.5l67.031-10.219c-4.32-29.232-12.188-52.584-23.613-70.041s-29.136-31.295-53.13-41.514
		c-13.782-5.87-28.85-10.044-45.187-12.542v-82.17h-55.497v80.086c-14.747,1.218-28.795,4.03-42.139,8.453
		c-18.412,6.107-32.944,13.559-43.608,22.354c-14.223,11.356-25.458,25.62-33.706,42.791c-8.254,17.178-12.378,35.839-12.378,55.99
		c0,22.141,5.011,42.365,15.044,60.674c10.027,18.309,24.756,32.646,44.18,43.004c15,8.005,39.209,17.149,72.608,27.435v145.406
		c-17.582-3.62-32.15-10.764-43.663-21.476c-17.395-16.18-27.993-39.451-31.802-69.828l-67.793,11.922
		c7.617,47.974,25.196,84.165,52.749,108.574c22.11,19.597,52.285,31.317,90.508,35.184v67.832h55.497v-67.865
		c21.532-2.487,41.362-8.16,59.469-17.055c25.137-12.348,44.37-29.805,57.7-52.371s19.995-46.623,19.995-72.17
		c0-26.112-5.463-47.967-16.377-65.57C651.522,530.146,636.479,516.733,617.311,507.506z M455.255,452.367
		c-11.938-5.389-20.697-12.201-26.279-20.438c-5.588-7.943-8.379-16.885-8.379-26.824c0-15.607,6.725-29.232,20.186-40.875
		c10.072-8.71,25.199-14.161,45.376-16.352v114.903C470.074,457.71,459.771,454.238,455.255,452.367z M585.509,671.857
		c-10.646,10.019-25.273,16.522-43.854,19.539V561.518c23.775,7.43,39.287,13.767,46.52,19.01
		c13.455,9.939,20.186,23.564,20.186,40.875C608.36,640.709,600.743,657.527,585.509,671.857z"/>
	<path d="M513.907,1.574c-282.77,0-512,229.23-512,511.999c0,282.77,229.23,512,512,512c282.77,0,512-229.23,512-512
		C1025.907,230.804,796.677,1.574,513.907,1.574z M513.907,970.572c-252.394,0-457-204.607-457-457
		c0-252.392,204.606-456.999,457-456.999c252.394,0,457,204.606,457,456.999C970.907,765.965,766.301,970.572,513.907,970.572z"/>
	<path d="M513.907,101.574c-227.542,0-412,184.459-412,411.999c0,227.541,184.459,412,412,412c227.541,0,412-184.459,412-412
		C925.907,286.033,741.448,101.574,513.907,101.574z M513.907,881.314c-203.099,0-367.743-164.645-367.743-367.742
		c0-203.097,164.644-367.741,367.743-367.741c203.098,0,367.742,164.644,367.742,367.741
		C881.649,716.67,717.005,881.314,513.907,881.314z"/>
</g>
</svg>
