<?xml version="1.0" encoding="utf-8"?>
<!-- Generator: Adobe Illustrator 16.0.0, SVG Export Plug-In . SVG Version: 6.00 Build 0)  -->
<!DOCTYPE svg PUBLIC "-//W3C//DTD SVG 1.1//EN" "http://www.w3.org/Graphics/SVG/1.1/DTD/svg11.dtd">
<svg version="1.1" id="图层_1" xmlns="http://www.w3.org/2000/svg" xmlns:xlink="http://www.w3.org/1999/xlink" x="0px" y="0px"
	 width="1024px" height="1024px" viewBox="0 0 1024 1024" enable-background="new 0 0 1024 1024" xml:space="preserve">
<path fill="#040000" stroke="#000000" stroke-miterlimit="10" d="M1024,1012.232c0,6.498-5.41,11.768-12.084,11.768H12.084
	C5.41,1024,0,1018.73,0,1012.232v-76.472C0,929.27,5.41,924,12.084,924h999.831c6.675,0,12.085,5.27,12.085,11.762V1012.232z"/>
<path fill="#040000" stroke="#000000" stroke-miterlimit="10" d="M716.8,781.232c0,6.498-3.787,11.768-8.459,11.768H8.459
	C3.787,793,0,787.73,0,781.232v-76.472C0,698.27,3.787,693,8.459,693h699.882c4.672,0,8.459,5.27,8.459,11.762V781.232z"/>
<path fill="#040000" stroke="#000000" stroke-miterlimit="10" d="M1024,550.232c0,6.498-5.41,11.768-12.084,11.768H12.084
	C5.41,562,0,556.73,0,550.232v-76.472C0,467.27,5.41,462,12.084,462h999.831c6.675,0,12.085,5.27,12.085,11.762V550.232z"/>
<path fill="#040000" stroke="#000000" stroke-miterlimit="10" d="M716.8,319.232c0,6.498-3.787,11.768-8.458,11.768H8.459
	C3.787,331,0,325.73,0,319.232v-76.471C0,236.27,3.787,231,8.459,231h699.883c4.671,0,8.458,5.27,8.458,11.762V319.232z"/>
<path fill="#040000" stroke="#000000" stroke-miterlimit="10" d="M1024,88.232c0,6.498-5.41,11.768-12.084,11.768H12.084
	C5.41,100,0,94.73,0,88.232v-76.47C0,5.27,5.41,0,12.084,0h999.831C1018.59,0,1024,5.27,1024,11.762V88.232z"/>
</svg>
