<?xml version="1.0" encoding="utf-8"?>
<!-- Generator: Adobe Illustrator 16.0.0, SVG Export Plug-In . SVG Version: 6.00 Build 0)  -->
<!DOCTYPE svg PUBLIC "-//W3C//DTD SVG 1.1//EN" "http://www.w3.org/Graphics/SVG/1.1/DTD/svg11.dtd">
<svg version="1.1" id="图层_1" xmlns="http://www.w3.org/2000/svg" xmlns:xlink="http://www.w3.org/1999/xlink" x="0px" y="0px"
	 width="1024px" height="1024px" viewBox="0 0 1024 1024" enable-background="new 0 0 1024 1024" xml:space="preserve">
<path d="M1001.567,951.744L807.227,746.849c-1.617-1.705-3.573-2.92-5.694-3.68c67.902-77.54,108.996-178.73,108.996-289.428
	c0-244.085-199.79-441.956-446.262-441.956C217.8,11.785,18,209.656,18,453.741c0,244.087,199.8,441.956,446.267,441.956
	c104.576,0,200.744-35.627,276.817-95.285c0.66,1.85,1.684,3.581,3.104,5.077l194.342,204.895
	c5.962,6.287,16.443,6.132,23.405-0.346l37.822-35.183C1006.721,968.376,1007.529,958.027,1001.567,951.744z M464.264,840.454
	c-215.655,0-390.481-173.139-390.481-386.713S248.609,67.03,464.264,67.03c215.658,0,390.482,173.137,390.482,386.711
	S679.922,840.454,464.264,840.454z"/>
</svg>
